HIERARCHY
ROOT SpineBase
{
  OFFSET 0.000000 0.000000 0.000000
  CHANNELS 6 Xposition Yposition Zposition Zrotation Xrotation Yrotation
  JOINT SpineMid
  {
    OFFSET 0.000000 31.377924 0.000000
    CHANNELS 3 Zrotation Xrotation Yrotation
    JOINT SpineShoulder
    {
      OFFSET 0.081773 23.256010 -0.714315
      CHANNELS 3 Zrotation Xrotation Yrotation
      JOINT Neck
      {
        OFFSET 0.054474 7.675410 -0.531885
        CHANNELS 3 Zrotation Xrotation Yrotation
        JOINT Head
        {
          OFFSET -3.884807 12.963306 0.202923
          CHANNELS 3 Zrotation Xrotation Yrotation
          End Site
          {
            OFFSET 0 0 0
          }
        }
      }
      JOINT ShoulderLeft
      {
        OFFSET -16.591566 -4.856925 7.643912
        CHANNELS 3 Zrotation Xrotation Yrotation
        JOINT ElbowLeft
        {
          OFFSET -5.066154 -24.050869 4.575837
          CHANNELS 3 Zrotation Xrotation Yrotation
          JOINT WristLeft
          {
            OFFSET 5.025351 -16.173293 -19.181923
            CHANNELS 3 Zrotation Xrotation Yrotation
            JOINT HandLeft
            {
              OFFSET 3.223209 -4.315859 -2.412168
              CHANNELS 3 Zrotation Xrotation Yrotation
              JOINT HandTipLeft
              {
                OFFSET -1.554779 -4.318465 -4.990136
                CHANNELS 3 Zrotation Xrotation Yrotation
                End Site
                {
                  OFFSET 0 0 0
                }
              }
              JOINT ThumbLeft
              {
                OFFSET -3.028674 3.019366 -6.015119
                CHANNELS 3 Zrotation Xrotation Yrotation
                End Site
                {
                  OFFSET 0 0 0
                }
              }
            }
          }
        }
      }
      JOINT ShoulderRight
      {
        OFFSET 12.632814 -4.989041 -8.923398
        CHANNELS 3 Zrotation Xrotation Yrotation
        JOINT ElbowRight
        {
          OFFSET 8.658032 -23.129434 -2.135416
          CHANNELS 3 Zrotation Xrotation Yrotation
          JOINT WristRight
          {
            OFFSET -17.853619 -18.128356 -7.408993
            CHANNELS 3 Zrotation Xrotation Yrotation
            JOINT HandRight
            {
              OFFSET -3.880182 -3.797322 2.993052
              CHANNELS 3 Zrotation Xrotation Yrotation
              JOINT HandTipRight
              {
                OFFSET -4.522214 -4.097441 -2.604504
                CHANNELS 3 Zrotation Xrotation Yrotation
                End Site
                {
                  OFFSET 0 0 0
                }
              }
              JOINT ThumbRight
              {
                OFFSET 3.023777 -3.529047 -1.912371
                CHANNELS 3 Zrotation Xrotation Yrotation
                End Site
                {
                  OFFSET 0 0 0
                }
              }
            }
          }
        }
      }
    }
  }
  JOINT HipLeft
  {
    OFFSET -5.489651 -0.269218 -0.239697
    CHANNELS 3 Zrotation Xrotation Yrotation
    JOINT KneeLeft
    {
      OFFSET 0.503323 -37.213482 6.485192
      CHANNELS 3 Zrotation Xrotation Yrotation
      JOINT AnkleLeft
      {
        OFFSET 8.018123 -36.821298 12.097637
        CHANNELS 3 Zrotation Xrotation Yrotation
        JOINT FootLeft
        {
          OFFSET -2.159677 -7.916716 -4.499243
          CHANNELS 3 Zrotation Xrotation Yrotation
          End Site
          {
            OFFSET 0 0 0
          }
        }
      }
    }
  }
  JOINT HipRight
  {
    OFFSET 5.959502 1.409781 -6.186031
    CHANNELS 3 Zrotation Xrotation Yrotation
    JOINT KneeRight
    {
      OFFSET 7.513928 -36.584770 -0.633400
      CHANNELS 3 Zrotation Xrotation Yrotation
      JOINT AnkleRight
      {
        OFFSET 6.767118 -37.370997 9.401838
        CHANNELS 3 Zrotation Xrotation Yrotation
        JOINT FootRight
        {
          OFFSET -0.679547 -8.110900 -5.028082
          CHANNELS 3 Zrotation Xrotation Yrotation
          End Site
          {
            OFFSET 0 0 0
          }
        }
      }
    }
  }
}
MOTION
Frames: 16
Frame Time: 0.033333
-24.695291 82.894458 335.274533 -0.000000 0.000000 27.445960 -0.000000 0.000000 -27.445960 -0.000000 0.000000 0.000000 -0.000000 0.000000 0.000000 0.000000 0.000000 0.000000 -0.000000 0.000000 0.000000 -0.000000 0.000000 0.000000 -0.000000 0.000000 0.000000 -0.000000 0.000000 0.000000 0.000000 0.000000 0.000000 0.000000 0.000000 0.000000 -0.000000 0.000000 0.000000 -0.000000 0.000000 0.000000 -0.000000 0.000000 0.000000 -0.000000 0.000000 0.000000 0.000000 0.000000 0.000000 0.000000 0.000000 0.000000 -0.000000 0.000000 -27.445960 -0.000000 0.000000 0.000000 -0.000000 0.000000 0.000000 0.000000 0.000000 0.000000 -0.000000 0.000000 -27.445960 -0.000000 0.000000 0.000000 -0.000000 0.000000 0.000000 0.000000 0.000000 0.000000
-24.665466 82.807363 334.908602 0.072937 0.183439 27.050912 -0.148383 -0.130201 -27.051198 -0.000000 0.000000 0.000000 -0.000000 0.000000 0.000000 0.000000 0.000000 0.000000 -0.000000 0.000000 0.000000 -0.000000 0.000000 0.000000 -1.941985 2.881069 3.280972 1.221860 0.051984 -3.438082 0.000000 0.000000 0.000000 0.000000 0.000000 0.000000 -0.000000 0.000000 0.000000 -0.000000 0.000000 0.000000 -0.000000 0.000000 0.000000 0.584081 -2.260504 2.174673 0.000000 0.000000 0.000000 0.000000 0.000000 0.000000 -0.148383 -0.130201 -27.051198 -0.000000 0.000000 0.000000 0.790880 -0.161769 -0.405321 0.000000 0.000000 0.000000 -0.148383 -0.130201 -27.051198 -0.000000 0.000000 0.000000 -0.000000 0.000000 0.000000 0.000000 0.000000 0.000000
-24.657147 82.733089 334.580956 0.135648 0.338363 26.729788 -0.273344 -0.241191 -26.730764 -0.000000 0.000000 0.000000 -0.000000 0.000000 0.000000 0.000000 0.000000 0.000000 -0.000000 0.000000 0.000000 0.555528 1.189384 -0.291041 -4.258993 4.072851 6.365904 2.352497 -0.287228 -6.236861 0.000000 0.000000 0.000000 0.000000 0.000000 0.000000 -0.774963 0.734168 0.352021 -0.130610 -0.098577 -0.601492 0.907765 -0.630790 0.257817 1.335462 -4.024799 3.773379 0.000000 0.000000 0.000000 0.000000 0.000000 0.000000 -0.273344 -0.241191 -26.730764 -0.000000 0.000000 0.000000 1.338637 -0.142263 -0.723146 0.000000 0.000000 0.000000 -0.273344 -0.241191 -26.730764 -0.000000 0.000000 0.000000 0.292720 0.733433 -0.243869 0.000000 0.000000 0.000000
-24.670334 82.671637 334.291595 0.188162 0.464847 26.482809 -0.375713 -0.332158 -26.484661 -0.000000 0.000000 0.000000 0.575613 -0.656473 -0.202159 0.000000 0.000000 0.000000 -0.000000 0.000000 0.000000 0.711944 1.662714 -0.331702 -5.871362 5.507453 8.714460 3.241012 -0.804951 -8.390790 0.000000 0.000000 0.000000 0.000000 0.000000 0.000000 -1.020569 0.979599 0.470848 -0.425904 -0.166088 -0.671986 1.448010 -0.804837 0.214277 2.225743 -5.335689 4.825533 0.000000 0.000000 0.000000 0.000000 0.000000 0.000000 -0.375713 -0.332158 -26.484661 -0.077403 -0.855607 -0.211839 1.718346 0.922831 -0.769407 0.000000 0.000000 0.000000 -0.375713 -0.332158 -26.484661 -0.000000 0.000000 0.000000 0.402855 0.970800 -0.332837 0.000000 0.000000 0.000000
-24.705027 82.623005 334.040519 0.230503 0.562947 26.310113 -0.456149 -0.402456 -26.312848 -0.000000 0.000000 0.000000 0.772918 -0.825879 -0.253545 0.000000 0.000000 0.000000 -0.000000 0.000000 0.000000 0.783408 2.053542 -0.298083 -7.024413 6.575016 10.435998 3.809870 -1.352311 -9.919519 0.000000 0.000000 0.000000 0.000000 0.000000 0.000000 -1.172130 1.145912 0.550501 -0.862158 -0.255952 -0.589265 2.966444 -0.345431 0.256248 2.294674 -6.765517 5.166749 0.000000 0.000000 0.000000 0.000000 0.000000 0.000000 -0.713469 -1.348928 -26.296900 -0.305110 -0.110427 -0.288472 1.818049 1.530661 -0.864506 0.000000 0.000000 0.000000 -0.456149 -0.402456 -26.312848 -0.035066 -0.928457 -0.176883 0.517678 2.053061 -0.231064 0.000000 0.000000 0.000000
-24.761225 82.587193 333.827728 0.262684 0.632697 26.211780 -0.515141 -0.451598 -26.215260 -0.000000 0.000000 0.000000 0.973044 -0.970064 -0.296990 0.000000 0.000000 0.000000 0.067198 0.805164 -0.157522 0.695146 1.556903 -0.019651 -7.670638 7.313473 11.511452 4.026073 -1.836098 -10.852518 0.000000 0.000000 0.000000 0.000000 0.000000 0.000000 -1.229704 1.233899 0.590461 -1.427206 -0.371407 -0.358182 5.042219 0.078132 0.736234 1.910954 -7.683944 4.379615 0.000000 0.000000 0.000000 0.000000 0.000000 0.000000 -0.739759 -1.566046 -26.183453 -0.451941 -0.156376 -0.356924 1.682365 2.286374 -0.872127 0.000000 0.000000 0.000000 -0.515141 -0.451598 -26.215260 -0.010045 -1.029767 -0.188668 0.553259 2.222134 -0.265163 0.000000 0.000000 0.000000
-24.842037 82.569044 333.666406 0.294377 0.675373 26.219553 -0.562492 -0.475807 -26.223623 -0.000000 0.000000 0.000000 1.268630 -1.192194 -0.362800 0.000000 0.000000 0.000000 0.330218 1.165538 -0.186528 0.157414 1.429069 0.395116 -7.057374 7.953410 11.522764 3.326764 -2.405339 -11.047575 0.000000 0.000000 0.000000 0.000000 0.000000 0.000000 -1.152032 1.110892 0.534916 -2.630054 -0.483269 0.353656 10.397434 0.648242 3.149952 -0.084451 -8.639883 0.363112 0.000000 0.000000 0.000000 0.000000 0.000000 0.000000 -0.704183 -1.737384 -26.167615 -0.636568 -0.215216 -0.425910 1.165990 3.706664 -0.844570 0.000000 0.000000 0.000000 -0.869358 -1.298840 -26.409391 -0.103043 -0.156022 -0.008028 0.553377 2.408880 -0.277179 0.000000 0.000000 0.000000
-24.969207 82.567135 333.554895 0.286785 0.654095 26.437071 -0.548021 -0.457996 -26.440898 -0.000000 0.000000 0.000000 1.520795 -1.322440 -0.401053 0.000000 0.000000 0.000000 0.607581 1.433377 -0.194630 -0.467229 1.245039 0.823531 -6.539027 7.791545 10.925021 2.936327 -2.008292 -10.626375 0.000000 0.000000 0.000000 0.000000 0.000000 0.000000 -0.802963 0.834336 0.393069 -4.182125 -0.591216 1.307383 18.041030 2.272114 6.319952 -4.125078 -9.398729 -6.233856 0.000000 0.000000 0.000000 0.000000 0.000000 0.000000 -0.521252 -1.831963 -26.346226 -0.901520 -0.295865 -0.500891 0.408712 4.935029 -0.613229 0.000000 0.000000 0.000000 -0.788379 -1.422866 -26.647929 -0.229607 -0.006249 0.024791 0.516453 2.443298 -0.269694 0.000000 0.000000 0.000000
-25.090907 82.571390 333.435620 0.289081 0.661822 26.603018 -0.554860 -0.462287 -26.606926 -0.000000 0.000000 0.000000 1.722507 -1.405898 -0.425330 0.000000 0.000000 0.000000 0.725705 1.479083 -0.183567 -0.770313 1.289001 1.049301 -6.430200 7.669798 10.707228 2.620936 -1.152813 -10.311862 0.000000 0.000000 0.000000 0.000000 0.000000 0.000000 -0.600595 0.774430 0.349873 -4.584846 -0.829465 1.694687 20.646850 4.748002 5.086633 -6.913522 -11.084184 -6.100217 0.000000 0.000000 0.000000 0.000000 0.000000 0.000000 -0.394554 -1.901631 -26.482974 -1.111941 -0.392934 -0.565067 -0.604210 5.886148 -0.143679 0.000000 0.000000 0.000000 -0.776577 -1.559465 -26.837707 -0.188207 0.051133 0.069224 0.446250 1.916517 -0.271388 0.000000 0.000000 0.000000
-25.219385 82.575170 333.331626 0.282552 0.638062 26.718101 -0.539271 -0.442886 -26.721759 -0.000000 0.000000 0.000000 1.791117 -1.341820 -0.407360 0.000000 0.000000 0.000000 0.791066 1.483963 -0.173019 -0.954634 1.310314 1.182378 -6.408297 6.992492 10.135309 1.703772 1.302431 -8.964702 0.000000 0.000000 0.000000 0.000000 0.000000 0.000000 -0.437563 0.829730 0.354433 -4.848123 -1.326590 2.120880 21.709480 4.885963 5.533544 -6.200072 -10.444392 -8.979911 0.000000 0.000000 0.000000 0.000000 0.000000 0.000000 -0.245798 -1.915451 -26.570938 -1.290370 -0.499432 -0.618156 -1.353665 6.537397 0.226256 0.000000 0.000000 0.000000 -0.775112 -1.674756 -26.979721 -0.086816 0.212928 0.139284 0.285747 1.476056 -0.272845 0.000000 0.000000 0.000000
-25.343674 82.557442 333.211175 0.267172 0.643621 26.877758 -0.529297 -0.453294 -26.881352 -0.000000 0.000000 0.000000 1.828486 -1.281133 -0.390322 0.000000 0.000000 0.000000 0.770189 1.233036 -0.121915 -0.921561 1.554950 1.120272 -5.520137 6.458698 9.162388 1.839684 0.899443 -8.908005 0.000000 0.000000 0.000000 0.000000 0.000000 0.000000 -0.296339 0.944204 0.383331 -4.609135 -1.268891 1.789881 19.074465 4.150069 4.726256 -5.427232 -7.917575 -8.940711 0.000000 0.000000 0.000000 0.000000 0.000000 0.000000 -0.136097 -1.980957 -26.707869 -1.456772 -0.527240 -0.659687 -1.546154 6.353207 0.451574 0.000000 0.000000 0.000000 -0.797218 -1.821850 -27.168707 0.016707 0.353294 0.202028 -0.399762 0.988008 0.082016 0.000000 0.000000 0.000000
-25.457072 82.529966 333.105235 0.233297 0.650842 27.014887 -0.503483 -0.473847 -27.018294 -0.000000 0.000000 0.000000 1.820498 -1.096184 -0.338034 0.000000 0.000000 0.000000 0.752019 1.065669 -0.088677 -0.995791 1.645468 1.175508 -5.523582 7.341808 9.755870 1.993420 -0.028964 -9.699353 0.000000 0.000000 0.000000 0.000000 0.000000 0.000000 -0.252961 1.112387 0.442190 -4.573196 -1.632077 1.869916 18.930079 4.621433 3.998023 -7.461849 -5.218236 -10.408283 0.000000 0.000000 0.000000 0.000000 0.000000 0.000000 -0.034790 -2.035718 -26.827928 -1.568798 -0.568618 -0.690173 -1.230290 5.522616 0.510581 0.000000 0.000000 0.000000 -0.847583 -1.961575 -27.336186 0.184080 0.509957 0.269636 -0.556958 0.972281 0.040792 0.000000 0.000000 0.000000
-25.560964 82.501533 333.019856 0.177151 0.668710 27.042692 -0.461829 -0.515047 -27.045801 -0.000000 0.000000 0.000000 2.003637 -1.057733 -0.328185 0.000000 0.000000 0.000000 0.648038 0.735506 -0.035883 -0.828515 2.231899 1.131770 -5.693577 6.994516 9.724207 1.973007 -0.163760 -9.521618 0.000000 0.000000 0.000000 0.000000 0.000000 0.000000 -0.225110 1.310596 0.513806 -4.322256 -1.792735 1.652572 16.711510 5.501058 1.281362 -9.087008 -4.789584 -6.813672 0.000000 0.000000 0.000000 0.000000 0.000000 0.000000 0.072005 -2.107922 -26.840811 -1.648617 -0.596922 -0.710170 -0.946311 4.662941 0.579191 0.000000 0.000000 0.000000 -0.883311 -2.086286 -27.387905 0.360943 0.630248 0.326357 -0.010711 0.366163 -0.385986 0.000000 0.000000 0.000000
-25.652545 82.470694 332.962868 0.130111 0.681700 26.987734 -0.425313 -0.548414 -26.990544 -0.000000 0.000000 0.000000 2.251736 -0.934002 -0.295101 0.000000 0.000000 0.000000 0.721359 0.773555 -0.030651 -0.810975 2.458115 1.096328 -6.680180 6.795657 10.344995 1.675972 3.065519 -9.266996 0.000000 0.000000 0.000000 0.000000 0.000000 0.000000 -0.221708 1.525443 0.594168 -3.681312 -1.693033 1.039083 11.340749 5.686930 -2.391142 -8.654345 -0.981475 -4.482311 0.000000 0.000000 0.000000 0.000000 0.000000 0.000000 0.156398 -2.161954 -26.775136 -1.686354 -0.615319 -0.717916 -0.046708 3.082940 0.450529 0.000000 0.000000 0.000000 -0.894642 -2.173702 -27.348319 0.515787 0.710648 0.372375 -0.179804 -0.032995 -0.365142 0.000000 0.000000 0.000000
-25.715602 82.426305 332.919828 0.148352 0.700847 26.841249 0.187945 -0.045077 -26.833277 0.095856 0.027086 0.017292 1.988437 -1.594640 -0.259907 0.000000 0.000000 0.000000 0.350724 0.097972 -0.057335 -0.768646 2.088996 0.903396 -8.903707 10.100497 14.308237 2.880292 0.277968 -12.361889 0.000000 0.000000 0.000000 0.000000 0.000000 0.000000 -0.669877 0.986684 0.653071 -2.907910 -1.133147 -0.075575 5.477894 5.254704 -5.277229 -6.253201 -1.448385 1.450438 0.000000 0.000000 0.000000 0.000000 0.000000 0.000000 0.154129 -2.204187 -26.623159 -1.677505 -0.618557 -0.715090 1.242838 1.544109 0.079693 0.000000 0.000000 0.000000 -0.986464 -2.213769 -27.215139 0.670679 0.797990 0.410674 -0.242243 -0.327143 -0.398146 0.000000 0.000000 0.000000
-25.804279 82.409964 332.906669 0.167428 0.736523 26.558342 0.230845 -0.044021 -26.548692 0.112210 0.045809 0.020365 1.955081 -1.627483 -0.250620 0.000000 0.000000 0.000000 0.407045 0.161700 -0.066160 -0.876726 2.138359 0.934870 -12.350494 12.842346 18.974787 3.634090 -2.222377 -14.804219 0.000000 0.000000 0.000000 0.000000 0.000000 0.000000 -0.792004 1.000996 0.685018 -1.869110 -0.321146 -1.338931 -1.162537 4.264528 -7.869572 -3.482082 -0.034424 6.004315 0.000000 0.000000 0.000000 0.000000 0.000000 0.000000 0.180275 -2.277129 -26.327653 -1.689381 -0.657395 -0.721309 2.660410 0.782867 -0.567579 0.000000 0.000000 0.000000 -0.980113 -2.265236 -26.934363 0.678320 0.862626 0.433108 -0.138831 -0.625528 -0.490138 0.000000 0.000000 0.000000
